<svg xmlns="http://www.w3.org/2000/svg" width="92.415" height="65.201" viewBox="0 0 92.415 134.201">
  <g id="Group_7" data-name="Group 7" transform="translate(-918.085 -2934.799)">
    <path id="Icon_material-attach-money" data-name="Icon material-attach-money" d="M50.973,63.4C33.785,59,28.258,54.453,28.258,47.37c0-8.127,7.647-13.793,20.443-13.793,13.478,0,18.475,6.337,18.929,15.657H84.364c-.53-12.824-8.48-24.6-24.305-28.406V4.5H37.344V20.6c-14.689,3.131-26.5,12.525-26.5,26.915,0,17.222,14.462,25.8,35.587,30.792,18.929,4.473,22.715,11.034,22.715,17.968,0,5.144-3.71,13.346-20.444,13.346-15.6,0-21.731-6.859-22.564-15.657H9.48c.909,16.328,13.326,25.5,27.864,28.555V138.7H60.059v-16.03c14.765-2.759,26.5-11.183,26.5-26.467C86.56,75.03,68.16,67.8,50.973,63.4Z" transform="translate(908.605 2930.299)" fill="#05c97c"/>
    <path id="Icon_material-attach-money-2" data-name="Icon material-attach-money" d="M50.973,63.4C33.785,59,28.258,54.453,28.258,47.37c0-8.127,7.647-13.793,20.443-13.793,13.478,0,18.475,6.337,18.929,15.657H84.364c-.53-12.824-8.48-24.6-24.305-28.406V4.5H37.344V20.6c-14.689,3.131-26.5,12.525-26.5,26.915,0,17.222,14.462,25.8,35.587,30.792,18.929,4.473,22.715,11.034,22.715,17.968,0,5.144-3.71,13.346-20.444,13.346-15.6,0-21.731-6.859-22.564-15.657H9.48c.909,16.328,13.326,25.5,27.864,28.555V138.7H60.059v-16.03c14.765-2.759,26.5-11.183,26.5-26.467C86.56,75.03,68.16,67.8,50.973,63.4Z" transform="translate(923.94 2930.299)" fill="#88d69b"/>
  </g>
</svg>
