<svg xmlns="http://www.w3.org/2000/svg" width="897.715" height="923.829" viewBox="0 0 897.715 923.829">
  <path id="Icon_awesome-recycle" data-name="Icon awesome-recycle" d="M323.6,472.565c5.667,25.256-21.256,44.45-42.2,30.977l-71.424-45.93L120.788,604.49c-23.292,38.352,3.629,88.381,47.554,88.381H259.5c11.619,0,21.04,9.695,21.04,21.652V786.7c0,11.957-9.421,21.652-21.04,21.652H168.523C36.436,808.349-44.162,658.5,25.786,543.327l89.109-146.852L43.49,350.557c-21.182-13.617-15.721-46.843,8.555-52.611l193.284-45.921c15.1-3.587,30.159,6.1,33.645,21.634L323.6,472.565ZM496.412,142.523l72.394,119.224L497.374,307.68c-21.13,13.583-15.78,46.828,8.555,52.611l193.284,45.921c15.205,3.607,30.184-6.2,33.645-21.634l44.623-198.906c5.606-24.979-21.023-44.6-42.2-30.977l-71.339,45.874L591.594,81.334c-65.787-108.32-219.535-108.569-285.474,0l-31.5,51.9a22.023,22.023,0,0,0,6.7,29.831l59.472,38.243a20.7,20.7,0,0,0,28.993-6.887l31.492-51.862C423.569,105.86,474.874,107.06,496.412,142.523Zm375.508,400.8-48.243-79.509a20.7,20.7,0,0,0-29-6.894L735.309,495.1a22.025,22.025,0,0,0-6.694,29.837l48.33,79.594c23.244,38.272-3.607,88.341-47.579,88.341H561.072V606.3c0-25.645-30.231-38.582-47.889-20.413L372.914,730.2a29.464,29.464,0,0,0,0,40.827L513.183,915.354c17.537,18.051,47.889,5.406,47.889-20.416V808.349H729.183C861.165,808.349,941.926,658.594,871.92,543.327Z" transform="translate(0)" fill="#fff"/>
</svg>
